<?xml version="1.0" encoding="utf-8"?>
<svg viewBox="-265.308 -116.848 166.575 250.813" xmlns="http://www.w3.org/2000/svg">
  <g id="3_diamond" transform="matrix(1, 0, 0, 1, -600.458392, -119.879627)">
    <g transform="matrix(1, 0, 0, 1, 335.1499938964844, 243.13699340820312)">
      <path style="fill:#FFFFFF;stroke:#000000;stroke-width:2.5" d="M 0,0C0,3.78 3.09,6.87 6.87,6.87L159.715,6.87C163.485,6.87 166.575,3.78 166.575,0L166.575,-228.4C166.575,-232.18 163.485,-235.27 159.715,-235.27L6.87,-235.27C3.09,-235.27 0,-232.18 0,-228.4L0,0 z"/>
    </g>
    <g transform="matrix(1, 0, 0, 1, 339.1499938964844, 44.02000045776367)" style="fill: rgb(230, 24, 10);">
      <text transform="scale(0.56453 1.05741)" font-family="Bitstream Vera Serif" font-weight="bold" font-size="43" style="white-space: pre;">3</text>
    </g>
    <g transform="matrix(-1, 1.2246467991473532e-16, -1.2246467991473532e-16, -1, 498.7250061035156, 212.85699462890625)" style="fill: rgb(230, 24, 10);">
      <text transform="scale(0.56453 1.05741)" font-family="Bitstream Vera Serif" font-weight="bold" font-size="43" style="white-space: pre;">3</text>
    </g>
    <g transform="matrix(-1, 1.2246467991473532e-16, -1.2246467991473532e-16, -1, 348.79998779296875, 58.02000045776367)">
      <path style="fill:#e6180a" d="M0,0C-2.56,0-5.12,0-7.68,0C -6.8053,0.039-6.061,0.605-5.358,1.0728C-3.779,2.264-2.3,3.63 -1.132,5.228C-0.587,6.032 -0.0144,6.936 0,7.94M-7.68,0C-6.57,-0.035 -5.622,-0.7413 -4.776,-1.393C-3.281,-2.648 -1.987,-4.141 -0.895,-5.757C-0.494,-6.426 -0.022,-7.135 0,-7.94C0,-5.293 0,-2.647 0,0M0,-7.94C0.038,-6.758 0.758,-5.734 1.438,-4.82C2.65,-3.310 4.086,-1.974 5.666,-0.857C6.28,-0.474 6.932,-0.0185 7.68,0C5.12,0 2.56,0 0,0M 7.68,0C6.57,0.035 5.622,0.741 4.776,1.392C 3.281,2.648 1.987,4.141 0.895,5.757C0.494,6.426 0.0225,7.135 0,7.94C0,5.293 0,2.647 0,0"/>
    </g>
    <g transform="matrix(1, 0, 0, 1, 489.07501220703125, 198.85699462890625)">
      <path style="fill:#e6180a" d="M0,0C-2.56,0-5.12,0-7.68,0C -6.8053,0.039-6.061,0.605-5.358,1.0728C-3.779,2.264-2.3,3.63 -1.132,5.228C-0.587,6.032 -0.0144,6.936 0,7.94M-7.68,0C-6.57,-0.035 -5.622,-0.7413 -4.776,-1.393C-3.281,-2.648 -1.987,-4.141 -0.895,-5.757C-0.494,-6.426 -0.022,-7.135 0,-7.94C0,-5.293 0,-2.647 0,0M0,-7.94C0.038,-6.758 0.758,-5.734 1.438,-4.82C2.65,-3.310 4.086,-1.974 5.666,-0.857C6.28,-0.474 6.932,-0.0185 7.68,0C5.12,0 2.56,0 0,0M 7.68,0C6.57,0.035 5.622,0.741 4.776,1.392C 3.281,2.648 1.987,4.141 0.895,5.757C0.494,6.426 0.0225,7.135 0,7.94C0,5.293 0,2.647 0,0"/>
    </g>
    <g transform="matrix(2.4000000953674316, 0, 0, 2.4000000953674316, 418.9368330533034, 208.0999228199289)">
      <path style="fill:#e6180a" d="M0,0C-2.56,0-5.12,0-7.68,0C -6.8053,0.039-6.061,0.605-5.358,1.0728C-3.779,2.264-2.3,3.63 -1.132,5.228C-0.587,6.032 -0.0144,6.936 0,7.94M-7.68,0C-6.57,-0.035 -5.622,-0.7413 -4.776,-1.393C-3.281,-2.648 -1.987,-4.141 -0.895,-5.757C-0.494,-6.426 -0.022,-7.135 0,-7.94C0,-5.293 0,-2.647 0,0M0,-7.94C0.038,-6.758 0.758,-5.734 1.438,-4.82C2.65,-3.310 4.086,-1.974 5.666,-0.857C6.28,-0.474 6.932,-0.0185 7.68,0C5.12,0 2.56,0 0,0M 7.68,0C6.57,0.035 5.622,0.741 4.776,1.392C 3.281,2.648 1.987,4.141 0.895,5.757C0.494,6.426 0.0225,7.135 0,7.94C0,5.293 0,2.647 0,0"/>
    </g>
    <g transform="matrix(-2.4000000953674316, 2.9391524347450677e-16, -2.9391524347450677e-16, -2.4000000953674316, 418.9368330533034, 121.56864191566456)">
      <path style="fill:#e6180a" d="M0,0C-2.56,0-5.12,0-7.68,0C -6.8053,0.039-6.061,0.605-5.358,1.0728C-3.779,2.264-2.3,3.63 -1.132,5.228C-0.587,6.032 -0.0144,6.936 0,7.94M-7.68,0C-6.57,-0.035 -5.622,-0.7413 -4.776,-1.393C-3.281,-2.648 -1.987,-4.141 -0.895,-5.757C-0.494,-6.426 -0.022,-7.135 0,-7.94C0,-5.293 0,-2.647 0,0M0,-7.94C0.038,-6.758 0.758,-5.734 1.438,-4.82C2.65,-3.310 4.086,-1.974 5.666,-0.857C6.28,-0.474 6.932,-0.0185 7.68,0C5.12,0 2.56,0 0,0M 7.68,0C6.57,0.035 5.622,0.741 4.776,1.392C 3.281,2.648 1.987,4.141 0.895,5.757C0.494,6.426 0.0225,7.135 0,7.94C0,5.293 0,2.647 0,0"/>
    </g>
    <g transform="matrix(-2.4000000953674316, 2.9391524347450677e-16, -2.9391524347450677e-16, -2.4000000953674316, 418.9368330533034, 44.62752405117043)">
      <path style="fill:#e6180a" d="M0,0C-2.56,0-5.12,0-7.68,0C -6.8053,0.039-6.061,0.605-5.358,1.0728C-3.779,2.264-2.3,3.63 -1.132,5.228C-0.587,6.032 -0.0144,6.936 0,7.94M-7.68,0C-6.57,-0.035 -5.622,-0.7413 -4.776,-1.393C-3.281,-2.648 -1.987,-4.141 -0.895,-5.757C-0.494,-6.426 -0.022,-7.135 0,-7.94C0,-5.293 0,-2.647 0,0M0,-7.94C0.038,-6.758 0.758,-5.734 1.438,-4.82C2.65,-3.310 4.086,-1.974 5.666,-0.857C6.28,-0.474 6.932,-0.0185 7.68,0C5.12,0 2.56,0 0,0M 7.68,0C6.57,0.035 5.622,0.741 4.776,1.392C 3.281,2.648 1.987,4.141 0.895,5.757C0.494,6.426 0.0225,7.135 0,7.94C0,5.293 0,2.647 0,0"/>
    </g>
  </g>
</svg>