<?xml version="1.0" encoding="utf-8"?>
<svg viewBox="-265.308 -359.985 166.575 250.813" xmlns="http://www.w3.org/2000/svg">
  <g id="3_club" transform="matrix(1, 0, 0, 1, -600.458392, -119.879627)">
    <g transform="matrix(1, 0, 0, 1, 335.1499938964844, 0)">
      <path style="fill:#FFFFFF;stroke:#000000;stroke-width:2.5" d="M 0,0C0,3.78 3.09,6.87 6.87,6.87L159.715,6.87C163.485,6.87 166.575,3.78 166.575,0L166.575,-228.4C166.575,-232.18 163.485,-235.27 159.715,-235.27L6.87,-235.27C3.09,-235.27 0,-232.18 0,-228.4L0,0 z"/>
    </g>
    <g transform="matrix(1, 0, 0, 1, 339.1499938964844, -199.11700439453125)">
      <text transform="scale(0.56453 1.05741)" font-family="Bitstream Vera Serif" font-weight="bold" font-size="43" style="white-space: pre;">3</text>
    </g>
    <g transform="matrix(-1, 1.2246467991473532e-16, -1.2246467991473532e-16, -1, 498.7250061035156, -30.280000686645504)">
      <text transform="scale(0.56453 1.05741)" font-family="Bitstream Vera Serif" font-weight="bold" font-size="43" style="white-space: pre;">3</text>
    </g>
    <g transform="matrix(-1, 1.2246467991473532e-16, -1.2246467991473532e-16, -1, 348.79998779296875, -185.11700439453125)">
      <path d="M3.35,4.66c0-1.81-1.51-3.28-3.38-3.28s-3.38,1.47-3.38,3.28c0,1.81,1.51,3.28,3.38,3.28S3.35,6.47,3.35,4.66z"/>
      <path d="M7.71-1.55c0-1.81-1.51-3.28-3.38-3.28S0.95-3.36,0.95-1.55c0,1.81,1.51,3.28,3.38,3.28S7.71,0.26,7.71-1.55z"/>
      <path d="M-0.95-1.57c0-0.66-0.2-1.28-0.55-1.8c-0.6-0.89-1.65-1.48-2.83-1.48c-1.87,0-3.38,1.47-3.38,3.28 c0,1.81,1.51,3.28,3.38,3.28S-0.95,0.24-0.95-1.57z"/>
      <path d="M3.94-7.94c-1.67,0-2.55,1.36-3.01,2.72C0.47-3.86,0.43-2.5,0.43-2.5h-0.86c0,0-0.16-5.43-3.5-5.44H3.94z"/>
      <path d="M-2.32,2.25c1.9-1.9,1.9-4.75,1.9-4.75l0.85-0.01c0,0,0,2.91,1.85,4.76"/>
      <path d="M-1.94-3.85c1.9,1.9,4.75,1.9,4.75,1.9v0.85c0,0-2.91,0-4.76,1.85"/>
      <path d="M1.87-3.86c-1.9,1.9-4.75,1.9-4.75,1.9v0.85c0,0,2.91,0,4.76,1.85"/>
    </g>
    <g transform="matrix(1, 0, 0, 1, 489.07501220703125, -44.279998779296875)">
      <path d="M3.35,4.66c0-1.81-1.51-3.28-3.38-3.28s-3.38,1.47-3.38,3.28c0,1.81,1.51,3.28,3.38,3.28S3.35,6.47,3.35,4.66z"/>
      <path d="M7.71-1.55c0-1.81-1.51-3.28-3.38-3.28S0.95-3.36,0.95-1.55c0,1.81,1.51,3.28,3.38,3.28S7.71,0.26,7.71-1.55z"/>
      <path d="M-0.95-1.57c0-0.66-0.2-1.28-0.55-1.8c-0.6-0.89-1.65-1.48-2.83-1.48c-1.87,0-3.38,1.47-3.38,3.28 c0,1.81,1.51,3.28,3.38,3.28S-0.95,0.24-0.95-1.57z"/>
      <path d="M3.94-7.94c-1.67,0-2.55,1.36-3.01,2.72C0.47-3.86,0.43-2.5,0.43-2.5h-0.86c0,0-0.16-5.43-3.5-5.44H3.94z"/>
      <path d="M-2.32,2.25c1.9-1.9,1.9-4.75,1.9-4.75l0.85-0.01c0,0,0,2.91,1.85,4.76"/>
      <path d="M-1.94-3.85c1.9,1.9,4.75,1.9,4.75,1.9v0.85c0,0-2.91,0-4.76,1.85"/>
      <path d="M1.87-3.86c-1.9,1.9-4.75,1.9-4.75,1.9v0.85c0,0,2.91,0,4.76,1.85"/>
    </g>
    <g transform="matrix(2.4000000953674316, 0, 0, 2.4000000953674316, 418.9368330533034, -35.03760133733749)">
      <path d="M3.35,4.66c0-1.81-1.51-3.28-3.38-3.28s-3.38,1.47-3.38,3.28c0,1.81,1.51,3.28,3.38,3.28S3.35,6.47,3.35,4.66z"/>
      <path d="M7.71-1.55c0-1.81-1.51-3.28-3.38-3.28S0.95-3.36,0.95-1.55c0,1.81,1.51,3.28,3.38,3.28S7.71,0.26,7.71-1.55z"/>
      <path d="M-0.95-1.57c0-0.66-0.2-1.28-0.55-1.8c-0.6-0.89-1.65-1.48-2.83-1.48c-1.87,0-3.38,1.47-3.38,3.28 c0,1.81,1.51,3.28,3.38,3.28S-0.95,0.24-0.95-1.57z"/>
      <path d="M3.94-7.94c-1.67,0-2.55,1.36-3.01,2.72C0.47-3.86,0.43-2.5,0.43-2.5h-0.86c0,0-0.16-5.43-3.5-5.44H3.94z"/>
      <path d="M-2.32,2.25c1.9-1.9,1.9-4.75,1.9-4.75l0.85-0.01c0,0,0,2.91,1.85,4.76"/>
      <path d="M-1.94-3.85c1.9,1.9,4.75,1.9,4.75,1.9v0.85c0,0-2.91,0-4.76,1.85"/>
      <path d="M1.87-3.86c-1.9,1.9-4.75,1.9-4.75,1.9v0.85c0,0,2.91,0,4.76,1.85"/>
    </g>
    <g transform="matrix(-2.4000000953674316, 2.9391524347450677e-16, -2.9391524347450677e-16, -2.4000000953674316, 418.9368330533034, -121.56864191566456)">
      <path d="M3.35,4.66c0-1.81-1.51-3.28-3.38-3.28s-3.38,1.47-3.38,3.28c0,1.81,1.51,3.28,3.38,3.28S3.35,6.47,3.35,4.66z"/>
      <path d="M7.71-1.55c0-1.81-1.51-3.28-3.38-3.28S0.95-3.36,0.95-1.55c0,1.81,1.51,3.28,3.38,3.28S7.71,0.26,7.71-1.55z"/>
      <path d="M-0.95-1.57c0-0.66-0.2-1.28-0.55-1.8c-0.6-0.89-1.65-1.48-2.83-1.48c-1.87,0-3.38,1.47-3.38,3.28 c0,1.81,1.51,3.28,3.38,3.28S-0.95,0.24-0.95-1.57z"/>
      <path d="M3.94-7.94c-1.67,0-2.55,1.36-3.01,2.72C0.47-3.86,0.43-2.5,0.43-2.5h-0.86c0,0-0.16-5.43-3.5-5.44H3.94z"/>
      <path d="M-2.32,2.25c1.9-1.9,1.9-4.75,1.9-4.75l0.85-0.01c0,0,0,2.91,1.85,4.76"/>
      <path d="M-1.94-3.85c1.9,1.9,4.75,1.9,4.75,1.9v0.85c0,0-2.91,0-4.76,1.85"/>
      <path d="M1.87-3.86c-1.9,1.9-4.75,1.9-4.75,1.9v0.85c0,0,2.91,0,4.76,1.85"/>
    </g>
    <g transform="matrix(-2.4000000953674316, 2.9391524347450677e-16, -2.9391524347450677e-16, -2.4000000953674316, 418.9368330533034, -198.5100115501882)">
      <path d="M3.35,4.66c0-1.81-1.51-3.28-3.38-3.28s-3.38,1.47-3.38,3.28c0,1.81,1.51,3.28,3.38,3.28S3.35,6.47,3.35,4.66z"/>
      <path d="M7.71-1.55c0-1.81-1.51-3.28-3.38-3.28S0.95-3.36,0.95-1.55c0,1.81,1.51,3.28,3.38,3.28S7.71,0.26,7.71-1.55z"/>
      <path d="M-0.95-1.57c0-0.66-0.2-1.28-0.55-1.8c-0.6-0.89-1.65-1.48-2.83-1.48c-1.87,0-3.38,1.47-3.38,3.28 c0,1.81,1.51,3.28,3.38,3.28S-0.95,0.24-0.95-1.57z"/>
      <path d="M3.94-7.94c-1.67,0-2.55,1.36-3.01,2.72C0.47-3.86,0.43-2.5,0.43-2.5h-0.86c0,0-0.16-5.43-3.5-5.44H3.94z"/>
      <path d="M-2.32,2.25c1.9-1.9,1.9-4.75,1.9-4.75l0.85-0.01c0,0,0,2.91,1.85,4.76"/>
      <path d="M-1.94-3.85c1.9,1.9,4.75,1.9,4.75,1.9v0.85c0,0-2.91,0-4.76,1.85"/>
      <path d="M1.87-3.86c-1.9,1.9-4.75,1.9-4.75,1.9v0.85c0,0,2.91,0,4.76,1.85"/>
    </g>
  </g>
</svg>