<?xml version="1.0" encoding="utf-8"?>
<svg viewBox="-265.308 369.427 166.575 250.813" xmlns="http://www.w3.org/2000/svg">
  <g id="3_spade" transform="matrix(1, 0, 0, 1, -600.458392, -119.879627)">
    <g transform="matrix(1, 0, 0, 1, 335.1499938964844, 729.4119873046875)">
      <path style="fill:#FFFFFF;stroke:#000000;stroke-width:2.5" d="M 0,0C0,3.78 3.09,6.87 6.87,6.87L159.715,6.87C163.485,6.87 166.575,3.78 166.575,0L166.575,-228.4C166.575,-232.18 163.485,-235.27 159.715,-235.27L6.87,-235.27C3.09,-235.27 0,-232.18 0,-228.4L0,0 z"/>
    </g>
    <g transform="matrix(1, 0, 0, 1, 339.1499938964844, 530.2949829101562)">
      <text transform="scale(0.56453 1.05741)" font-family="Bitstream Vera Serif" font-weight="bold" font-size="43" style="white-space: pre;">3</text>
    </g>
    <g transform="matrix(-1, 1.2246467991473532e-16, -1.2246467991473532e-16, -1, 498.7250061035156, 699.1320190429689)">
      <text transform="scale(0.56453 1.05741)" font-family="Bitstream Vera Serif" font-weight="bold" font-size="43" style="white-space: pre;">3</text>
    </g>
    <g transform="matrix(-1, 1.2246467991473532e-16, -1.2246467991473532e-16, -1, 348.7999877929687, 544.2949829101562)">
      <path d="M3.92-7.93c-1.67,0-2.55,1.78-3.01,3.56c-0.46,1.78-0.5,3.56-0.5,3.56L-0.44-0.8c0,0-0.16-7.13-3.5-7.13H3.92z"/>
      <path d="M6.75-0.8C6.74,2.67,1.53,5.19,0,7.93C-1.53,5.18-6.74,2.66-6.75-0.8c0-1.64,1.51-2.97,3.38-2.97C-1.51-3.77,0-2.44,0-0.8c0-1.64,1.51-2.97,3.38-2.97S6.75-2.44,6.75-0.8z"/>
    </g>
    <g transform="matrix(1, 0, 0, 1, 489.07501220703125, 685.1320190429688)">
      <path d="M3.92-7.93c-1.67,0-2.55,1.78-3.01,3.56c-0.46,1.78-0.5,3.56-0.5,3.56L-0.44-0.8c0,0-0.16-7.13-3.5-7.13H3.92z"/>
      <path d="M6.75-0.8C6.74,2.67,1.53,5.19,0,7.93C-1.53,5.18-6.74,2.66-6.75-0.8c0-1.64,1.51-2.97,3.38-2.97C-1.51-3.77,0-2.44,0-0.8c0-1.64,1.51-2.97,3.38-2.97S6.75-2.44,6.75-0.8z"/>
    </g>
    <g transform="matrix(2.4000000953674316, 0, 0, 2.4000000953674316, 418.9368330533034, 694.3752229044912)">
      <path d="M3.92-7.93c-1.67,0-2.55,1.78-3.01,3.56c-0.46,1.78-0.5,3.56-0.5,3.56L-0.44-0.8c0,0-0.16-7.13-3.5-7.13H3.92z"/>
      <path d="M6.75-0.8C6.74,2.67,1.53,5.19,0,7.93C-1.53,5.18-6.74,2.66-6.75-0.8c0-1.64,1.51-2.97,3.38-2.97C-1.51-3.77,0-2.44,0-0.8c0-1.64,1.51-2.97,3.38-2.97S6.75-2.44,6.75-0.8z"/>
    </g>
    <g transform="matrix(-2.4000000953674316, 2.9391524347450677e-16, -2.9391524347450677e-16, -2.4000000953674316, 418.93683305330336, 607.8432370441442)">
      <path d="M3.92-7.93c-1.67,0-2.55,1.78-3.01,3.56c-0.46,1.78-0.5,3.56-0.5,3.56L-0.44-0.8c0,0-0.16-7.13-3.5-7.13H3.92z"/>
      <path d="M6.75-0.8C6.74,2.67,1.53,5.19,0,7.93C-1.53,5.18-6.74,2.66-6.75-0.8c0-1.64,1.51-2.97,3.38-2.97C-1.51-3.77,0-2.44,0-0.8c0-1.64,1.51-2.97,3.38-2.97S6.75-2.44,6.75-0.8z"/>
    </g>
    <g transform="matrix(-2.4000000953674316, 2.9391524347450677e-16, -2.9391524347450677e-16, -2.4000000953674316, 418.93683305330336, 530.9016202172279)">
      <path d="M3.92-7.93c-1.67,0-2.55,1.78-3.01,3.56c-0.46,1.78-0.5,3.56-0.5,3.56L-0.44-0.8c0,0-0.16-7.13-3.5-7.13H3.92z"/>
      <path d="M6.75-0.8C6.74,2.67,1.53,5.19,0,7.93C-1.53,5.18-6.74,2.66-6.75-0.8c0-1.64,1.51-2.97,3.38-2.97C-1.51-3.77,0-2.44,0-0.8c0-1.64,1.51-2.97,3.38-2.97S6.75-2.44,6.75-0.8z"/>
    </g>
  </g>
</svg>