<?xml version="1.0" encoding="utf-8"?>
<svg viewBox="-432.883 126.289 166.575 250.814" xmlns="http://www.w3.org/2000/svg">
  <g id="2_heart" transform="matrix(1, 0, 0, 1, -600.458392, -119.879627)">
    <g transform="matrix(1, 0, 0, 1, 167.5749969482422, 486.2749938964844)">
      <path style="fill:#FFFFFF;stroke:#000000;stroke-width:2.5" d="M 0,0C0,3.78 3.09,6.87 6.87,6.87L159.715,6.87C163.485,6.87 166.575,3.78 166.575,0L166.575,-228.4C166.575,-232.18 163.485,-235.27 159.715,-235.27L6.87,-235.27C3.09,-235.27 0,-232.18 0,-228.4L0,0 z"/>
    </g>
    <g transform="matrix(1, 0, 0, 1, 171.5749969482422, 287.1570129394531)" style="fill: rgb(230, 24, 10);">
      <text transform="scale(0.56453 1.05741)" font-family="Bitstream Vera Serif" font-weight="bold" font-size="43" style="white-space: pre;">2</text>
    </g>
    <g transform="matrix(-1, 1.2246467991473532e-16, -1.2246467991473532e-16, -1, 331.1499938964843, 455.99499511718756)" style="fill: rgb(230, 24, 10);">
      <text transform="scale(0.56453 1.05741)" font-family="Bitstream Vera Serif" font-weight="bold" font-size="43" style="white-space: pre;">2</text>
    </g>
    <g transform="matrix(-1, 1.2246467991473532e-16, -1.2246467991473532e-16, -1, 181.2250061035156, 301.1570129394531)">
      <path style="fill:#E6180A;" d="M-7.67,3.93c0.01-4.71,5.91-8.14,7.64-11.87c1.75,3.72,7.66,7.12,7.7,11.83c0.01,2.22-1.71,4.03-3.82,4.03C1.73,7.92,0,6.13,0,3.91c0,2.23-1.71,4.03-3.82,4.03C-5.94,7.95-7.66,6.15-7.67,3.93z"/>
    </g>
    <g transform="matrix(1, 0, 0, 1, 321.5, 441.9949951171875)">
      <path style="fill:#E6180A;" d="M-7.67,3.93c0.01-4.71,5.91-8.14,7.64-11.87c1.75,3.72,7.66,7.12,7.7,11.83c0.01,2.22-1.71,4.03-3.82,4.03C1.73,7.92,0,6.13,0,3.91c0,2.23-1.71,4.03-3.82,4.03C-5.94,7.95-7.66,6.15-7.67,3.93z"/>
    </g>
    <g transform="matrix(2.4000000953674316, 0, 0, 2.4000000953674316, 251.36161277141582, 451.2384334579474)">
      <path style="fill:#E6180A;" d="M-7.67,3.93c0.01-4.71,5.91-8.14,7.64-11.87c1.75,3.72,7.66,7.12,7.7,11.83c0.01,2.22-1.71,4.03-3.82,4.03C1.73,7.92,0,6.13,0,3.91c0,2.23-1.71,4.03-3.82,4.03C-5.94,7.95-7.66,6.15-7.67,3.93z"/>
    </g>
    <g transform="matrix(-2.4000000953674316, 2.9391524347450677e-16, -2.9391524347450677e-16, -2.4000000953674316, 251.3616127714158, 287.7648124601365)">
      <path style="fill:#E6180A;" d="M-7.67,3.93c0.01-4.71,5.91-8.14,7.64-11.87c1.75,3.72,7.66,7.12,7.7,11.83c0.01,2.22-1.71,4.03-3.82,4.03C1.73,7.92,0,6.13,0,3.91c0,2.23-1.71,4.03-3.82,4.03C-5.94,7.95-7.66,6.15-7.67,3.93z"/>
    </g>
  </g>
</svg>